<?xml version='1.0' encoding='ascii'?>
<svg xmlns="http://www.w3.org/2000/svg" xmlns:inkscape="http://www.inkscape.org/namespaces/inkscape" height="603" version="1.1" width="1024">
    <g id="RenderLayer_LineSet" inkscape:groupmode="lineset" inkscape:label="RenderLayer_LineSet">
        <g id="fills" inkscape:groupmode="layer" inkscape:label="fills" xmlns:inkscape="http://www.inkscape.org/namespaces/inkscape">
            <path d=" M 289.469, 124.135 289.469, 124.135 284.766, 126.154 270.168, 119.400 200.768, 149.202 200.925, 162.158 196.222, 164.178 181.624, 157.423 133.762, 177.976 133.919, 190.933 128.019, 193.466 113.421, 186.711 54.551, 211.992 53.947, 221.106 54.103, 234.063 54.260, 247.019 54.971, 305.912 55.128, 318.869 576.660, 560.191 597.115, 560.262 634.446, 544.231 634.290, 531.274 633.578, 472.381 633.578, 472.381 662.379, 460.014 743.332, 497.472 812.731, 467.670 812.574, 454.713 811.863, 395.820 811.863, 395.820 840.663, 383.453 921.616, 420.911 958.948, 404.880 959.552, 395.765 959.396, 382.809 958.684, 323.916 958.528, 310.959 958.371, 298.003 436.839, 56.680 416.385, 56.609 357.515, 81.890 357.672, 94.846 357.672, 94.846 351.772, 97.380 337.174, 90.625 289.312, 111.178 289.469, 124.135  z M 396.307, 421.155 396.307, 421.155 395.958, 392.245 520.143, 449.708 520.300, 462.665 520.493, 478.618 396.307, 421.155  z  M 158.325, 311.036 157.975, 282.126 282.161, 339.589 282.317, 352.546 282.510, 368.499 158.325, 311.036 158.325, 311.036  z  M 336.544, 229.108 336.493, 224.888 438.907, 272.277 434.204, 274.297 336.544, 229.108  z  M 380.182, 166.109 380.233, 170.329 364.781, 163.179 369.484, 161.159 380.182, 166.109  z  M 493.304, 162.869 493.240, 157.576 595.654, 204.965 589.754, 207.499 493.304, 162.869  z  M 574.527, 339.227 574.476, 335.007 676.890, 382.396 672.187, 384.416 574.527, 339.227  z  M 731.287, 272.988 731.223, 267.696 833.637, 315.085 827.737, 317.618 731.287, 272.988  z" fill="rgb(228, 223, 221)" fill-opacity="1.0" fill_rule="evenodd" stroke="none" />
        </g>
        <g id="strokes" inkscape:groupmode="layer" inkscape:label="strokes">
            <path d=" M 357.672, 94.846 351.772, 97.380 337.174, 90.625 289.312, 111.178 " fill="none" stroke="rgb(0, 0, 0)" stroke-linecap="butt" stroke-linejoin="mitter" stroke-opacity="0.5841121673583984" stroke-width="1.5" />
            <path d=" M 351.772, 97.380 366.370, 104.135 379.507, 110.213 417.189, 127.649 423.088, 125.116 " fill="none" stroke="rgb(0, 0, 0)" stroke-linecap="butt" stroke-linejoin="mitter" stroke-opacity="0.5841121673583984" stroke-width="1.5" />
            <path d=" M 357.672, 94.846 351.772, 97.380 366.370, 104.135 379.507, 110.213 417.189, 127.649 431.787, 134.404 444.924, 140.483 444.860, 135.190 " fill="none" stroke="rgb(0, 0, 0)" stroke-linecap="butt" stroke-linejoin="mitter" stroke-opacity="0.5841121673583984" stroke-width="1.5" />
            <path d=" M 289.469, 124.135 284.766, 126.154 270.168, 119.400 200.768, 149.202 " fill="none" stroke="rgb(0, 0, 0)" stroke-linecap="butt" stroke-linejoin="mitter" stroke-opacity="0.5841121673583984" stroke-width="1.5" />
            <path d=" M 289.469, 124.135 284.766, 126.154 299.364, 132.909 350.183, 156.424 354.886, 154.404 " fill="none" stroke="rgb(0, 0, 0)" stroke-linecap="butt" stroke-linejoin="mitter" stroke-opacity="0.5841121673583984" stroke-width="1.5" />
            <path d=" M 380.233, 170.329 364.781, 163.179 350.183, 156.424 299.364, 132.909 284.766, 126.154 " fill="none" stroke="rgb(0, 0, 0)" stroke-linecap="butt" stroke-linejoin="mitter" stroke-opacity="0.5841121673583984" stroke-width="1.5" />
            <path d=" M 595.654, 204.965 589.754, 207.499 498.999, 165.505 493.304, 162.869 444.924, 140.483 431.787, 134.404 437.687, 131.871 " fill="none" stroke="rgb(0, 0, 0)" stroke-linecap="butt" stroke-linejoin="mitter" stroke-opacity="0.5841121673583984" stroke-width="1.5" />
            <path d=" M 380.182, 166.109 380.233, 170.329 364.781, 163.179 369.484, 161.159 " fill="none" stroke="rgb(0, 0, 0)" stroke-linecap="butt" stroke-linejoin="mitter" stroke-opacity="0.5841121673583984" stroke-width="1.5" />
            <path d=" M 200.925, 162.158 196.222, 164.178 181.624, 157.423 133.762, 177.976 " fill="none" stroke="rgb(0, 0, 0)" stroke-linecap="butt" stroke-linejoin="mitter" stroke-opacity="0.5841121673583984" stroke-width="1.5" />
            <path d=" M 196.222, 164.178 210.820, 170.933 210.820, 170.933 261.639, 194.448 266.342, 192.428 " fill="none" stroke="rgb(0, 0, 0)" stroke-linecap="butt" stroke-linejoin="mitter" stroke-opacity="0.5841121673583984" stroke-width="1.5" />
            <path d=" M 200.925, 162.158 196.222, 164.178 210.820, 170.933 210.820, 170.933 261.639, 194.448 271.127, 198.838 276.237, 201.202 280.940, 199.183 " fill="none" stroke="rgb(0, 0, 0)" stroke-linecap="butt" stroke-linejoin="mitter" stroke-opacity="0.5841121673583984" stroke-width="1.5" />
            <path d=" M 595.654, 204.965 589.754, 207.499 498.999, 165.505 493.304, 162.869 493.240, 157.576 " fill="none" stroke="rgb(0, 0, 0)" stroke-linecap="butt" stroke-linejoin="mitter" stroke-opacity="0.5841121673583984" stroke-width="1.5" />
            <path d=" M 380.182, 166.109 380.233, 170.329 380.317, 170.368 471.072, 212.362 522.748, 236.273 527.451, 234.254 " fill="none" stroke="rgb(0, 0, 0)" stroke-linecap="butt" stroke-linejoin="mitter" stroke-opacity="0.5841121673583984" stroke-width="1.5" />
            <path d=" M 336.544, 229.108 276.237, 201.202 276.237, 201.202 271.127, 198.838 261.639, 194.448 " fill="none" stroke="rgb(0, 0, 0)" stroke-linecap="butt" stroke-linejoin="mitter" stroke-opacity="0.5841121673583984" stroke-width="1.5" />
            <path d=" M 898.897, 332.398 953.855, 308.797 957.767, 307.117 958.371, 298.003 867.616, 256.009 776.861, 214.015 686.106, 172.021 595.351, 130.026 504.596, 88.032 436.839, 56.680 416.385, 56.609 357.515, 81.890 " fill="none" stroke="rgb(0, 0, 0)" stroke-linecap="butt" stroke-linejoin="mitter" stroke-opacity="0.5841121673583984" stroke-width="1.5" />
            <path d=" M 959.396, 382.809 958.684, 323.916 958.528, 310.959 958.371, 298.003 867.616, 256.009 776.861, 214.015 686.106, 172.021 595.351, 130.026 504.596, 88.032 436.839, 56.680 416.385, 56.609 357.515, 81.890 " fill="none" stroke="rgb(0, 0, 0)" stroke-linecap="butt" stroke-linejoin="mitter" stroke-opacity="0.5841121673583984" stroke-width="1.5" />
            <path d=" M 589.754, 207.499 604.353, 214.254 617.489, 220.332 655.171, 237.769 661.071, 235.235 " fill="none" stroke="rgb(0, 0, 0)" stroke-linecap="butt" stroke-linejoin="mitter" stroke-opacity="0.5841121673583984" stroke-width="1.5" />
            <path d=" M 267.068, 252.544 267.132, 257.837 223.570, 237.680 208.972, 230.925 208.034, 230.491 201.715, 227.567 193.436, 223.736 142.617, 200.221 128.019, 193.466 133.919, 190.933 " fill="none" stroke="rgb(0, 0, 0)" stroke-linecap="butt" stroke-linejoin="mitter" stroke-opacity="0.5841121673583984" stroke-width="1.5" />
            <path d=" M 830.851, 374.643 830.694, 361.686 779.876, 338.171 688.263, 295.780 621.908, 265.077 618.008, 263.272 541.893, 228.052 450.280, 185.661 383.925, 154.957 380.025, 153.153 303.910, 117.933 289.312, 111.178 289.469, 124.135 289.469, 124.135 304.067, 130.889 354.886, 154.404 369.484, 161.159 380.182, 166.109 385.020, 168.348 475.775, 210.342 527.451, 234.254 542.049, 241.009 592.868, 264.523 607.466, 271.278 698.222, 313.272 765.434, 344.373 780.032, 351.128 830.851, 374.643 830.851, 374.643 830.694, 361.686 779.876, 338.171 688.263, 295.780 621.908, 265.077 618.008, 263.272 541.893, 228.052 450.280, 185.661 383.925, 154.957 380.025, 153.153 303.910, 117.933 289.312, 111.178 289.469, 124.135 289.469, 124.135 304.067, 130.889 354.886, 154.404 369.484, 161.159 380.182, 166.109 385.020, 168.348 475.775, 210.342 527.451, 234.254 542.049, 241.009 592.868, 264.523 607.466, 271.278 698.222, 313.272 765.434, 344.373 780.032, 351.128 830.851, 374.643 830.851, 374.643 840.507, 370.496 855.876, 363.896 873.927, 356.145 878.713, 354.089 878.713, 354.089 878.608, 345.427 878.556, 341.133 855.472, 330.451 842.335, 324.373 827.737, 317.618 833.637, 315.085 742.882, 273.090 731.223, 267.696 682.842, 245.309 675.669, 241.990 665.806, 237.426 661.071, 235.235 617.425, 215.039 610.252, 211.720 595.654, 204.965 504.899, 162.971 493.240, 157.576 444.860, 135.190 437.687, 131.871 423.088, 125.116 379.443, 104.920 372.270, 101.601 357.672, 94.846 357.672, 94.846 357.515, 81.890 372.113, 88.645 386.711, 95.399 452.128, 125.669 493.083, 144.620 583.838, 186.614 610.096, 198.764 624.694, 205.519 690.111, 235.788 731.066, 254.739 821.821, 296.733 848.078, 308.883 862.676, 315.638 898.897, 332.398 899.054, 345.354 899.054, 345.354 855.408, 325.158 848.235, 321.839 833.637, 315.085 742.882, 273.090 731.223, 267.696 682.842, 245.309 675.669, 241.990 665.806, 237.426 661.071, 235.235 617.425, 215.039 610.252, 211.720 595.654, 204.965 504.899, 162.971 493.240, 157.576 444.860, 135.190 437.687, 131.871 423.088, 125.116 379.443, 104.920 372.270, 101.601 357.672, 94.846 357.672, 94.846 357.515, 81.890 372.113, 88.645 386.711, 95.399 452.128, 125.669 493.083, 144.620 583.838, 186.614 610.096, 198.764 624.694, 205.519 690.111, 235.788 731.066, 254.739 821.821, 296.733 848.078, 308.883 862.676, 315.638 898.897, 332.398 899.054, 345.354 899.054, 345.354 855.408, 325.158 848.235, 321.839 833.637, 315.085 " fill="none" stroke="rgb(0, 0, 0)" stroke-linecap="butt" stroke-linejoin="mitter" stroke-opacity="0.5841121673583984" stroke-width="1.5" />
            <path d=" M 208.034, 230.491 213.934, 227.957 " fill="none" stroke="rgb(0, 0, 0)" stroke-linecap="butt" stroke-linejoin="mitter" stroke-opacity="0.5841121673583984" stroke-width="1.5" />
            <path d=" M 267.132, 257.837 223.570, 237.680 208.972, 230.925 208.034, 230.491 201.715, 227.567 193.436, 223.736 199.336, 221.202 " fill="none" stroke="rgb(0, 0, 0)" stroke-linecap="butt" stroke-linejoin="mitter" stroke-opacity="0.5841121673583984" stroke-width="1.5" />
            <path d=" M 589.754, 207.499 604.353, 214.254 617.489, 220.332 655.171, 237.769 665.870, 242.719 669.770, 244.523 682.906, 250.602 682.842, 245.309 " fill="none" stroke="rgb(0, 0, 0)" stroke-linecap="butt" stroke-linejoin="mitter" stroke-opacity="0.5841121673583984" stroke-width="1.5" />
            <path d=" M 438.907, 272.277 434.204, 274.297 343.449, 232.303 336.544, 229.108 276.237, 201.202 280.940, 199.183 " fill="none" stroke="rgb(0, 0, 0)" stroke-linecap="butt" stroke-linejoin="mitter" stroke-opacity="0.5841121673583984" stroke-width="1.5" />
            <path d=" M 54.103, 234.063 54.260, 247.019 " fill="none" stroke="rgb(0, 0, 0)" stroke-linecap="butt" stroke-linejoin="mitter" stroke-opacity="0.5841121673583984" stroke-width="1.5" />
            <path d=" M 655.171, 237.769 665.870, 242.719 669.770, 244.523 675.669, 241.990 " fill="none" stroke="rgb(0, 0, 0)" stroke-linecap="butt" stroke-linejoin="mitter" stroke-opacity="0.5841121673583984" stroke-width="1.5" />
            <path d=" M 527.451, 234.254 522.748, 236.273 537.346, 243.028 588.165, 266.543 592.868, 264.523 " fill="none" stroke="rgb(0, 0, 0)" stroke-linecap="butt" stroke-linejoin="mitter" stroke-opacity="0.5841121673583984" stroke-width="1.5" />
            <path d=" M 438.907, 272.277 434.204, 274.297 343.449, 232.303 336.544, 229.108 336.493, 224.888 " fill="none" stroke="rgb(0, 0, 0)" stroke-linecap="butt" stroke-linejoin="mitter" stroke-opacity="0.5841121673583984" stroke-width="1.5" />
            <path d=" M 267.068, 252.544 267.132, 257.837 274.389, 261.194 280.289, 258.661 " fill="none" stroke="rgb(0, 0, 0)" stroke-linecap="butt" stroke-linejoin="mitter" stroke-opacity="0.5841121673583984" stroke-width="1.5" />
            <path d=" M 669.770, 244.523 682.906, 250.602 731.287, 272.988 731.223, 267.696 " fill="none" stroke="rgb(0, 0, 0)" stroke-linecap="butt" stroke-linejoin="mitter" stroke-opacity="0.5841121673583984" stroke-width="1.5" />
            <path d=" M 109.595, 259.740 109.595, 259.740 " fill="none" stroke="rgb(0, 0, 0)" stroke-linecap="butt" stroke-linejoin="mitter" stroke-opacity="0.5841121673583984" stroke-width="1.5" />
            <path d=" M 109.752, 272.696 124.193, 266.495 " fill="none" stroke="rgb(0, 0, 0)" stroke-linecap="butt" stroke-linejoin="mitter" stroke-opacity="0.5841121673583984" stroke-width="1.5" />
            <path d=" M 124.193, 266.495 109.752, 272.696 " fill="none" stroke="rgb(0, 0, 0)" stroke-linecap="butt" stroke-linejoin="mitter" stroke-opacity="0.5841121673583984" stroke-width="1.5" />
            <path d=" M 760.731, 346.393 669.976, 304.398 602.763, 273.298 588.165, 266.543 537.346, 243.028 522.748, 236.273 " fill="none" stroke="rgb(0, 0, 0)" stroke-linecap="butt" stroke-linejoin="mitter" stroke-opacity="0.5841121673583984" stroke-width="1.5" />
            <path d=" M 827.737, 317.618 736.982, 275.624 731.287, 272.988 682.906, 250.602 " fill="none" stroke="rgb(0, 0, 0)" stroke-linecap="butt" stroke-linejoin="mitter" stroke-opacity="0.5841121673583984" stroke-width="1.5" />
            <path d=" M 371.901, 301.052 366.001, 303.585 274.389, 261.194 267.132, 257.837 " fill="none" stroke="rgb(0, 0, 0)" stroke-linecap="butt" stroke-linejoin="mitter" stroke-opacity="0.5841121673583984" stroke-width="1.5" />
            <path d=" M 675.301, 441.441 675.144, 428.484 624.325, 404.969 532.713, 362.578 466.358, 331.875 439.477, 319.436 386.343, 294.850 294.730, 252.459 228.375, 221.756 201.494, 209.317 148.360, 184.731 133.762, 177.976 133.919, 190.933 133.919, 190.933 148.517, 197.688 199.336, 221.202 201.651, 222.274 213.934, 227.957 214.872, 228.391 229.470, 235.146 267.068, 252.544 280.289, 258.661 371.901, 301.052 386.499, 307.807 437.318, 331.322 439.634, 332.393 451.916, 338.076 452.854, 338.510 505.051, 362.663 518.271, 368.780 609.884, 411.171 624.482, 417.926 675.301, 441.441 675.144, 428.484 624.325, 404.969 532.713, 362.578 466.358, 331.875 439.477, 319.436 386.343, 294.850 294.730, 252.459 228.375, 221.756 201.494, 209.317 148.360, 184.731 133.762, 177.976 133.919, 190.933 133.919, 190.933 148.517, 197.688 199.336, 221.202 201.651, 222.274 213.934, 227.957 214.872, 228.391 229.470, 235.146 267.068, 252.544 280.289, 258.661 371.901, 301.052 386.499, 307.807 437.318, 331.322 439.634, 332.393 451.916, 338.076 452.854, 338.510 505.051, 362.663 518.271, 368.780 609.884, 411.171 624.482, 417.926 675.301, 441.441 677.591, 440.457 717.180, 423.457 723.162, 420.887 723.111, 416.668 723.071, 413.298 723.006, 407.931 686.785, 391.171 686.785, 391.171 672.187, 384.416 676.890, 382.396 586.135, 340.402 574.476, 335.007 518.922, 309.302 518.922, 309.302 509.059, 304.738 504.324, 302.547 453.505, 279.032 453.505, 279.032 438.907, 272.277 348.152, 230.283 336.493, 224.888 280.940, 199.183 280.940, 199.183 271.076, 194.619 266.342, 192.428 215.523, 168.913 215.523, 168.913 200.925, 162.158 200.925, 162.158 200.768, 149.202 215.366, 155.957 229.964, 162.711 295.381, 192.981 336.337, 211.932 427.092, 253.926 453.349, 266.076 467.947, 272.830 533.364, 303.100 574.319, 322.051 665.074, 364.045 691.332, 376.195 705.930, 382.950 742.150, 399.710 742.307, 412.666 691.488, 389.151 691.488, 389.151 676.890, 382.396 586.135, 340.402 574.476, 335.007 518.922, 309.302 518.922, 309.302 509.059, 304.738 504.324, 302.547 453.505, 279.032 453.505, 279.032 438.907, 272.277 348.152, 230.283 336.493, 224.888 280.940, 199.183 280.940, 199.183 271.076, 194.619 266.342, 192.428 215.523, 168.913 215.523, 168.913 200.925, 162.158 200.925, 162.158 200.768, 149.202 215.366, 155.957 229.964, 162.711 295.381, 192.981 336.337, 211.932 427.092, 253.926 453.349, 266.076 467.947, 272.830 533.364, 303.100 574.319, 322.051 665.074, 364.045 691.332, 376.195 705.930, 382.950 742.150, 399.710 742.307, 412.666 691.488, 389.151 691.488, 389.151 676.890, 382.396 " fill="none" stroke="rgb(0, 0, 0)" stroke-linecap="butt" stroke-linejoin="mitter" stroke-opacity="0.5841121673583984" stroke-width="1.5" />
            <path d=" M 760.731, 346.393 669.976, 304.398 602.763, 273.298 607.466, 271.278 " fill="none" stroke="rgb(0, 0, 0)" stroke-linecap="butt" stroke-linejoin="mitter" stroke-opacity="0.5841121673583984" stroke-width="1.5" />
            <path d=" M 434.204, 274.297 448.802, 281.052 448.802, 281.052 499.621, 304.567 509.110, 308.957 514.219, 311.321 514.219, 311.321 518.922, 309.302 " fill="none" stroke="rgb(0, 0, 0)" stroke-linecap="butt" stroke-linejoin="mitter" stroke-opacity="0.5841121673583984" stroke-width="1.5" />
            <path d=" M 499.621, 304.567 504.324, 302.547 " fill="none" stroke="rgb(0, 0, 0)" stroke-linecap="butt" stroke-linejoin="mitter" stroke-opacity="0.5841121673583984" stroke-width="1.5" />
            <path d=" M 514.219, 311.321 518.922, 309.302 " fill="none" stroke="rgb(0, 0, 0)" stroke-linecap="butt" stroke-linejoin="mitter" stroke-opacity="0.5841121673583984" stroke-width="1.5" />
            <path d=" M 672.187, 384.416 581.432, 342.422 574.527, 339.227 514.219, 311.321 514.219, 311.321 509.110, 308.957 499.621, 304.567 448.802, 281.052 448.802, 281.052 434.204, 274.297 " fill="none" stroke="rgb(0, 0, 0)" stroke-linecap="butt" stroke-linejoin="mitter" stroke-opacity="0.5841121673583984" stroke-width="1.5" />
            <path d=" M 54.971, 305.912 59.644, 308.074 110.463, 331.589 110.463, 331.589 " fill="none" stroke="rgb(0, 0, 0)" stroke-linecap="butt" stroke-linejoin="mitter" stroke-opacity="0.5841121673583984" stroke-width="1.5" />
            <path d=" M 282.510, 368.499 191.755, 326.505 158.325, 311.036 157.975, 282.126 " fill="none" stroke="rgb(0, 0, 0)" stroke-linecap="butt" stroke-linejoin="mitter" stroke-opacity="0.5841121673583984" stroke-width="1.5" />
            <path d=" M 110.463, 331.589 143.883, 317.238 158.325, 311.036 158.325, 311.036 249.080, 353.030 282.510, 368.499 " fill="none" stroke="rgb(0, 0, 0)" stroke-linecap="butt" stroke-linejoin="mitter" stroke-opacity="0.5841121673583984" stroke-width="1.5" />
            <path d=" M 505.115, 367.956 446.954, 341.044 446.017, 340.610 439.698, 337.686 431.418, 333.855 380.600, 310.340 366.001, 303.585 371.901, 301.052 " fill="none" stroke="rgb(0, 0, 0)" stroke-linecap="butt" stroke-linejoin="mitter" stroke-opacity="0.5841121673583984" stroke-width="1.5" />
            <path d=" M 830.694, 361.686 855.719, 350.940 873.770, 343.188 878.556, 341.133 855.472, 330.451 842.335, 324.373 827.737, 317.618 833.637, 315.085 " fill="none" stroke="rgb(0, 0, 0)" stroke-linecap="butt" stroke-linejoin="mitter" stroke-opacity="0.5841121673583984" stroke-width="1.5" />
            <path d=" M 446.017, 340.610 451.916, 338.076 " fill="none" stroke="rgb(0, 0, 0)" stroke-linecap="butt" stroke-linejoin="mitter" stroke-opacity="0.5841121673583984" stroke-width="1.5" />
            <path d=" M 133.919, 190.933 128.019, 193.466 113.421, 186.711 54.551, 211.992 53.947, 221.106 58.620, 223.268 73.218, 230.023 138.635, 260.293 157.819, 269.170 248.574, 311.164 296.602, 333.388 311.200, 340.142 376.617, 370.412 395.801, 379.289 486.557, 421.283 534.585, 443.507 549.183, 450.262 575.478, 462.429 595.933, 462.500 604.382, 458.872 633.182, 446.504 654.803, 437.219 618.582, 420.459 603.984, 413.704 609.884, 411.171 " fill="none" stroke="rgb(0, 0, 0)" stroke-linecap="butt" stroke-linejoin="mitter" stroke-opacity="0.5841121673583984" stroke-width="1.5" />
            <path d=" M 505.115, 367.956 446.954, 341.044 446.017, 340.610 439.698, 337.686 431.418, 333.855 437.318, 331.322 " fill="none" stroke="rgb(0, 0, 0)" stroke-linecap="butt" stroke-linejoin="mitter" stroke-opacity="0.5841121673583984" stroke-width="1.5" />
            <path d=" M 282.161, 339.589 282.317, 352.546 " fill="none" stroke="rgb(0, 0, 0)" stroke-linecap="butt" stroke-linejoin="mitter" stroke-opacity="0.5841121673583984" stroke-width="1.5" />
            <path d=" M 878.556, 341.133 878.608, 345.427 878.713, 354.089 888.368, 349.943 899.054, 345.354 " fill="none" stroke="rgb(0, 0, 0)" stroke-linecap="butt" stroke-linejoin="mitter" stroke-opacity="0.5841121673583984" stroke-width="1.5" />
            <path d=" M 672.187, 384.416 581.432, 342.422 574.527, 339.227 574.476, 335.007 " fill="none" stroke="rgb(0, 0, 0)" stroke-linecap="butt" stroke-linejoin="mitter" stroke-opacity="0.5841121673583984" stroke-width="1.5" />
            <path d=" M 921.459, 407.955 920.941, 365.015 920.748, 349.062 920.748, 349.062 958.080, 333.030 958.684, 323.916 " fill="none" stroke="rgb(0, 0, 0)" stroke-linecap="butt" stroke-linejoin="mitter" stroke-opacity="0.5841121673583984" stroke-width="1.5" />
            <path d=" M 921.459, 407.955 920.941, 365.015 920.748, 349.062 958.080, 333.030 958.684, 323.916 " fill="none" stroke="rgb(0, 0, 0)" stroke-linecap="butt" stroke-linejoin="mitter" stroke-opacity="0.5841121673583984" stroke-width="1.5" />
            <path d=" M 109.752, 272.696 109.595, 259.740 58.776, 236.225 54.103, 234.063 58.777, 236.225 58.778, 236.226 92.558, 251.857 109.595, 259.740 124.193, 266.495 124.193, 266.495 157.975, 282.126 248.730, 324.120 282.161, 339.589 296.759, 346.344 296.759, 346.344 322.674, 358.335 330.541, 361.976 347.578, 369.859 362.176, 376.614 362.176, 376.614 395.958, 392.245 486.713, 434.240 520.143, 449.708 534.741, 456.463 534.741, 456.463 568.524, 472.095 575.635, 475.385 596.090, 475.456 618.980, 465.626 647.781, 453.259 677.591, 440.457 731.621, 417.255 770.974, 400.356 797.265, 389.066 811.706, 382.864 811.706, 382.864 811.551, 369.982 811.550, 369.908 775.329, 353.147 760.731, 346.393 765.434, 344.373 " fill="none" stroke="rgb(0, 0, 0)" stroke-linecap="butt" stroke-linejoin="mitter" stroke-opacity="0.5841121673583984" stroke-width="1.5" />
            <path d=" M 856.042, 377.685 856.032, 376.853 888.525, 362.899 902.966, 356.698 903.894, 356.299 920.748, 349.062 " fill="none" stroke="rgb(0, 0, 0)" stroke-linecap="butt" stroke-linejoin="mitter" stroke-opacity="0.5841121673583984" stroke-width="1.5" />
            <path d=" M 54.103, 234.063 53.947, 221.106 58.620, 223.268 73.218, 230.023 138.635, 260.293 157.819, 269.170 248.574, 311.164 296.602, 333.388 311.200, 340.142 376.617, 370.412 395.801, 379.289 486.557, 421.283 534.585, 443.507 549.183, 450.262 575.478, 462.429 595.933, 462.500 604.382, 458.872 633.182, 446.504 654.803, 437.219 618.582, 420.459 603.984, 413.704 609.884, 411.171 " fill="none" stroke="rgb(0, 0, 0)" stroke-linecap="butt" stroke-linejoin="mitter" stroke-opacity="0.5841121673583984" stroke-width="1.5" />
            <path d=" M 322.674, 358.335 347.578, 369.859 347.578, 369.859 " fill="none" stroke="rgb(0, 0, 0)" stroke-linecap="butt" stroke-linejoin="mitter" stroke-opacity="0.5841121673583984" stroke-width="1.5" />
            <path d=" M 742.150, 399.710 782.667, 382.311 811.467, 369.943 811.550, 369.908 775.329, 353.147 760.731, 346.393 765.434, 344.373 " fill="none" stroke="rgb(0, 0, 0)" stroke-linecap="butt" stroke-linejoin="mitter" stroke-opacity="0.5841121673583984" stroke-width="1.5" />
            <path d=" M 505.051, 362.663 505.115, 367.956 512.372, 371.314 518.271, 368.780 " fill="none" stroke="rgb(0, 0, 0)" stroke-linecap="butt" stroke-linejoin="mitter" stroke-opacity="0.5841121673583984" stroke-width="1.5" />
            <path d=" M 347.734, 382.815 347.578, 369.859 322.674, 358.335 " fill="none" stroke="rgb(0, 0, 0)" stroke-linecap="butt" stroke-linejoin="mitter" stroke-opacity="0.5841121673583984" stroke-width="1.5" />
            <path d=" M 899.054, 345.354 903.737, 343.343 906.150, 342.307 954.011, 321.754 957.923, 320.074 958.528, 310.959 958.684, 323.916 959.396, 382.809 958.792, 391.923 921.459, 407.955 856.042, 377.685 856.042, 377.685 855.105, 377.251 840.663, 383.453 921.616, 420.911 921.459, 407.955 856.042, 377.685 856.042, 377.685 855.105, 377.251 840.663, 383.453 921.616, 420.911 921.459, 407.955 " fill="none" stroke="rgb(0, 0, 0)" stroke-linecap="butt" stroke-linejoin="mitter" stroke-opacity="0.5841121673583984" stroke-width="1.5" />
            <path d=" M 742.307, 412.666 746.991, 410.655 770.974, 400.356 731.621, 417.255 677.591, 440.457 647.781, 453.259 618.980, 465.626 596.090, 475.456 575.635, 475.385 568.524, 472.095 534.741, 456.463 534.741, 456.463 520.143, 449.708 429.388, 407.714 395.958, 392.245 362.176, 376.614 362.176, 376.614 347.578, 369.859 330.541, 361.976 322.674, 358.335 296.759, 346.344 296.759, 346.344 282.161, 339.589 191.406, 297.595 157.975, 282.126 124.193, 266.495 124.193, 266.495 109.595, 259.740 92.558, 251.857 58.775, 236.224 58.774, 236.224 54.103, 234.063 58.776, 236.225 109.595, 259.740 109.752, 272.696 92.715, 264.813 54.260, 247.019 54.971, 305.912 110.463, 331.589 201.218, 373.583 291.973, 415.578 382.728, 457.572 473.484, 499.566 564.239, 541.560 576.503, 547.235 521.011, 521.558 520.649, 491.575 520.493, 478.618 520.300, 462.665 568.680, 485.051 575.792, 488.342 596.246, 488.413 633.578, 472.381 633.578, 472.381 634.290, 531.274 596.958, 547.306 576.503, 547.235 485.748, 505.241 394.993, 463.247 304.238, 421.252 213.482, 379.258 122.727, 337.264 110.463, 331.589 54.971, 305.912 59.644, 308.074 110.463, 331.589 109.944, 288.649 109.752, 272.696 92.715, 264.813 54.260, 247.019 54.971, 305.912 " fill="none" stroke="rgb(0, 0, 0)" stroke-linecap="butt" stroke-linejoin="mitter" stroke-opacity="0.5841121673583984" stroke-width="1.5" />
            <path d=" M 855.105, 377.251 856.032, 376.853 856.042, 377.685 " fill="none" stroke="rgb(0, 0, 0)" stroke-linecap="butt" stroke-linejoin="mitter" stroke-opacity="0.5841121673583984" stroke-width="1.5" />
            <path d=" M 505.051, 362.663 505.115, 367.956 512.372, 371.314 603.984, 413.704 " fill="none" stroke="rgb(0, 0, 0)" stroke-linecap="butt" stroke-linejoin="mitter" stroke-opacity="0.5841121673583984" stroke-width="1.5" />
            <path d=" M 347.734, 382.815 362.176, 376.614 " fill="none" stroke="rgb(0, 0, 0)" stroke-linecap="butt" stroke-linejoin="mitter" stroke-opacity="0.5841121673583984" stroke-width="1.5" />
            <path d=" M 362.176, 376.614 347.734, 382.815 " fill="none" stroke="rgb(0, 0, 0)" stroke-linecap="butt" stroke-linejoin="mitter" stroke-opacity="0.5841121673583984" stroke-width="1.5" />
            <path d=" M 770.974, 400.356 797.265, 389.066 811.706, 382.864 811.706, 382.864 826.065, 376.698 830.851, 374.643 " fill="none" stroke="rgb(0, 0, 0)" stroke-linecap="butt" stroke-linejoin="mitter" stroke-opacity="0.5841121673583984" stroke-width="1.5" />
            <path d=" M 811.863, 395.820 840.663, 383.453 " fill="none" stroke="rgb(0, 0, 0)" stroke-linecap="butt" stroke-linejoin="mitter" stroke-opacity="0.5841121673583984" stroke-width="1.5" />
            <path d=" M 770.974, 400.356 797.265, 389.066 770.974, 400.356 " fill="none" stroke="rgb(0, 0, 0)" stroke-linecap="butt" stroke-linejoin="mitter" stroke-opacity="0.5841121673583984" stroke-width="1.5" />
            <path d=" M 921.616, 420.911 958.948, 404.880 959.552, 395.765 959.396, 382.809 958.792, 391.923 921.459, 407.955 " fill="none" stroke="rgb(0, 0, 0)" stroke-linecap="butt" stroke-linejoin="mitter" stroke-opacity="0.5841121673583984" stroke-width="1.5" />
            <path d=" M 675.144, 428.484 677.435, 427.500 717.023, 410.500 723.006, 407.931 686.785, 391.171 686.785, 391.171 672.187, 384.416 676.890, 382.396 " fill="none" stroke="rgb(0, 0, 0)" stroke-linecap="butt" stroke-linejoin="mitter" stroke-opacity="0.5841121673583984" stroke-width="1.5" />
            <path d=" M 396.307, 421.155 395.958, 392.245 " fill="none" stroke="rgb(0, 0, 0)" stroke-linecap="butt" stroke-linejoin="mitter" stroke-opacity="0.5841121673583984" stroke-width="1.5" />
            <path d=" M 742.464, 425.623 746.219, 424.010 811.863, 395.820 811.863, 395.820 747.147, 423.611 746.219, 424.010 742.464, 425.623 742.464, 425.623 743.175, 484.516 " fill="none" stroke="rgb(0, 0, 0)" stroke-linecap="butt" stroke-linejoin="mitter" stroke-opacity="0.5841121673583984" stroke-width="1.5" />
            <path d=" M 520.493, 478.618 429.737, 436.624 396.307, 421.155 396.307, 421.155 381.866, 427.357 348.446, 441.708 347.927, 398.769 347.734, 382.815 330.698, 374.932 282.317, 352.546 282.510, 368.499 282.667, 381.455 283.029, 411.439 282.667, 381.455 282.510, 368.499 282.317, 352.546 330.698, 374.932 347.734, 382.815 347.927, 398.769 348.446, 441.708 381.866, 427.357 396.307, 421.155 396.307, 421.155 487.062, 463.149 520.493, 478.618 520.300, 462.665 568.680, 485.051 575.792, 488.342 596.246, 488.413 633.578, 472.381 633.578, 472.381 634.290, 531.274 596.958, 547.306 576.503, 547.235 " fill="none" stroke="rgb(0, 0, 0)" stroke-linecap="butt" stroke-linejoin="mitter" stroke-opacity="0.5841121673583984" stroke-width="1.5" />
            <path d=" M 743.175, 484.516 812.574, 454.713 811.863, 395.820 811.863, 395.820 747.147, 423.611 746.219, 424.010 742.464, 425.623 742.464, 425.623 743.175, 484.516 " fill="none" stroke="rgb(0, 0, 0)" stroke-linecap="butt" stroke-linejoin="mitter" stroke-opacity="0.5841121673583984" stroke-width="1.5" />
            <path d=" M 742.464, 425.623 731.778, 430.211 677.748, 453.413 677.758, 454.246 743.175, 484.516 " fill="none" stroke="rgb(0, 0, 0)" stroke-linecap="butt" stroke-linejoin="mitter" stroke-opacity="0.5841121673583984" stroke-width="1.5" />
            <path d=" M 596.090, 475.456 618.980, 465.626 647.781, 453.259 654.960, 450.176 654.881, 443.660 654.803, 437.219 " fill="none" stroke="rgb(0, 0, 0)" stroke-linecap="butt" stroke-linejoin="mitter" stroke-opacity="0.5841121673583984" stroke-width="1.5" />
            <path d=" M 520.143, 449.708 520.300, 462.665 " fill="none" stroke="rgb(0, 0, 0)" stroke-linecap="butt" stroke-linejoin="mitter" stroke-opacity="0.5841121673583984" stroke-width="1.5" />
            <path d=" M 676.820, 453.812 677.748, 453.413 677.758, 454.246 743.175, 484.516 " fill="none" stroke="rgb(0, 0, 0)" stroke-linecap="butt" stroke-linejoin="mitter" stroke-opacity="0.5841121673583984" stroke-width="1.5" />
            <path d=" M 633.578, 472.381 662.379, 460.014 " fill="none" stroke="rgb(0, 0, 0)" stroke-linecap="butt" stroke-linejoin="mitter" stroke-opacity="0.5841121673583984" stroke-width="1.5" />
            <path d=" M 54.971, 305.912 55.128, 318.869 145.883, 360.863 236.638, 402.857 327.393, 444.851 418.148, 486.845 508.904, 528.839 576.660, 560.191 597.115, 560.262 634.446, 544.231 634.290, 531.274 " fill="none" stroke="rgb(0, 0, 0)" stroke-linecap="butt" stroke-linejoin="mitter" stroke-opacity="0.5841121673583984" stroke-width="1.5" />
            <path d=" M 743.332, 497.472 812.731, 467.670 812.574, 454.713 743.175, 484.516 676.820, 453.812 662.379, 460.014 743.332, 497.472 743.175, 484.516 676.820, 453.812 662.379, 460.014 743.332, 497.472 743.175, 484.516 " fill="none" stroke="rgb(0, 0, 0)" stroke-linecap="butt" stroke-linejoin="mitter" stroke-opacity="0.5841121673583984" stroke-width="1.5" />
            <path d=" M 596.246, 488.413 633.578, 472.381 " fill="none" stroke="rgb(0, 0, 0)" stroke-linecap="butt" stroke-linejoin="mitter" stroke-opacity="0.5841121673583984" stroke-width="1.5" />
        </g>
    </g>
</svg>
